# xmcd
#
# Track frame offsets: 
#        150
#        22858
#        34233
#        45085
#        61168
#        73435
#        89990
#        105765
#        117493
#        129995
#        144470
#        153308
#
# Disc length: 2306 seconds
#
# Revision: 6
# Processed by: cddbd v1.5.2PL0 Copyright (c) Steve Scherf et al.
# Submitted via: ExactAudioCopyFreeDBPlugin 1.0
#
DISCID=9c09000c
DTITLE=Johnny Cash - The Christmas Spirit
DYEAR=1996
DGENRE=Christmas
TTITLE0=The Christmas Spirit
TTITLE1=I Heard the Bells on Christmas Day
TTITLE2=Blue Christmas
TTITLE3=The Gifts They Gave
TTITLE4=Here Was a Man
TTITLE5=Christmas as I Knew It
TTITLE6=Slient Night
TTITLE7=The Little Drummer Boy
TTITLE8=Ringing the Bells for Jim
TTITLE9=We Are the Shepherds
TTITLE10=Who Kept the Sheep
TTITLE11=The Ballad of the Harp Weaver
EXTD=
EXTT0=
EXTT1=
EXTT2=
EXTT3=
EXTT4=
EXTT5=
EXTT6=
EXTT7=
EXTT8=
EXTT9=
EXTT10=
EXTT11=
PLAYORDER=
